<!--?xml version="1.0" encoding="us-ascii" standalone="no"?--><svg xmlns="http://www.w3.org/2000/svg" xmlns:xlink="http://www.w3.org/1999/xlink" contentstyletype="text/css" height="269px" preserveAspectRatio="none" style="width:421px;height:269px;background:#FFFFFF;" version="1.1" viewBox="0 0 421 269" width="421px" zoomAndPan="magnify"><defs></defs><g><line style="stroke:#181818;stroke-width:0.5;stroke-dasharray:5.0,5.0;" x1="24" x2="24" y1="81.2969" y2="188.6953"></line><line style="stroke:#181818;stroke-width:0.5;stroke-dasharray:5.0,5.0;" x1="156" x2="156" y1="81.2969" y2="188.6953"></line><line style="stroke:#181818;stroke-width:0.5;stroke-dasharray:5.0,5.0;" x1="287" x2="287" y1="81.2969" y2="188.6953"></line><line style="stroke:#181818;stroke-width:0.5;stroke-dasharray:5.0,5.0;" x1="371" x2="371" y1="81.2969" y2="188.6953"></line><text fill="#000000" font-family="sans-serif" font-size="14" lengthAdjust="spacing" textLength="32" x="5" y="77.9951">User</text><ellipse cx="24" cy="13.5" fill="#E2E2F0" rx="8" ry="8" style="stroke:#181818;stroke-width:0.5;"></ellipse><path d="M24,21.5 L24,48.5 M11,29.5 L37,29.5 M24,48.5 L11,63.5 M24,48.5 L37,63.5 " fill="none" style="stroke:#181818;stroke-width:0.5;"></path><text fill="#000000" font-family="sans-serif" font-size="14" lengthAdjust="spacing" textLength="32" x="5" y="200.6904">User</text><ellipse cx="24" cy="212.4922" fill="#E2E2F0" rx="8" ry="8" style="stroke:#181818;stroke-width:0.5;"></ellipse><path d="M24,220.4922 L24,247.4922 M11,228.4922 L37,228.4922 M24,247.4922 L11,262.4922 M24,247.4922 L37,262.4922 " fill="none" style="stroke:#181818;stroke-width:0.5;"></path><rect fill="#E2E2F0" height="30.2969" rx="2.5" ry="2.5" style="stroke:#181818;stroke-width:0.5;" width="58" x="127" y="50"></rect><text fill="#000000" font-family="sans-serif" font-size="14" lengthAdjust="spacing" textLength="44" x="134" y="69.9951">Server</text><rect fill="#E2E2F0" height="30.2969" rx="2.5" ry="2.5" style="stroke:#181818;stroke-width:0.5;" width="58" x="127" y="187.6953"></rect><text fill="#000000" font-family="sans-serif" font-size="14" lengthAdjust="spacing" textLength="44" x="134" y="207.6904">Server</text><text fill="#000000" font-family="sans-serif" font-size="14" lengthAdjust="spacing" textLength="46" x="261" y="77.9951">MySQL</text><path d="M269,29 C269,19 287,19 287,19 C287,19 305,19 305,29 L305,55 C305,65 287,65 287,65 C287,65 269,65 269,55 L269,29 " fill="#E2E2F0" style="stroke:#181818;stroke-width:1.5;"></path><path d="M269,29 C269,39 287,39 287,39 C287,39 305,39 305,29 " fill="none" style="stroke:#181818;stroke-width:1.5;"></path><text fill="#000000" font-family="sans-serif" font-size="14" lengthAdjust="spacing" textLength="46" x="261" y="200.6904">MySQL</text><path d="M269,213.9922 C269,203.9922 287,203.9922 287,203.9922 C287,203.9922 305,203.9922 305,213.9922 L305,239.9922 C305,249.9922 287,249.9922 287,249.9922 C287,249.9922 269,249.9922 269,239.9922 L269,213.9922 " fill="#E2E2F0" style="stroke:#181818;stroke-width:1.5;"></path><path d="M269,213.9922 C269,223.9922 287,223.9922 287,223.9922 C287,223.9922 305,223.9922 305,213.9922 " fill="none" style="stroke:#181818;stroke-width:1.5;"></path><text fill="#000000" font-family="sans-serif" font-size="14" lengthAdjust="spacing" textLength="91" x="323" y="77.9951">Elasticsearch</text><path d="M353.5,29 C353.5,19 371.5,19 371.5,19 C371.5,19 389.5,19 389.5,29 L389.5,55 C389.5,65 371.5,65 371.5,65 C371.5,65 353.5,65 353.5,55 L353.5,29 " fill="#E2E2F0" style="stroke:#181818;stroke-width:1.5;"></path><path d="M353.5,29 C353.5,39 371.5,39 371.5,39 C371.5,39 389.5,39 389.5,29 " fill="none" style="stroke:#181818;stroke-width:1.5;"></path><text fill="#000000" font-family="sans-serif" font-size="14" lengthAdjust="spacing" textLength="91" x="323" y="200.6904">Elasticsearch</text><path d="M353.5,213.9922 C353.5,203.9922 371.5,203.9922 371.5,203.9922 C371.5,203.9922 389.5,203.9922 389.5,213.9922 L389.5,239.9922 C389.5,249.9922 371.5,249.9922 371.5,249.9922 C371.5,249.9922 353.5,249.9922 353.5,239.9922 L353.5,213.9922 " fill="#E2E2F0" style="stroke:#181818;stroke-width:1.5;"></path><path d="M353.5,213.9922 C353.5,223.9922 371.5,223.9922 371.5,223.9922 C371.5,223.9922 389.5,223.9922 389.5,213.9922 " fill="none" style="stroke:#181818;stroke-width:1.5;"></path><polygon fill="#181818" points="144,108.4297,154,112.4297,144,116.4297,148,112.4297" style="stroke:#181818;stroke-width:1.0;"></polygon><line style="stroke:#181818;stroke-width:1.0;" x1="24" x2="150" y1="112.4297" y2="112.4297"></line><text fill="#000000" font-family="sans-serif" font-size="13" lengthAdjust="spacing" textLength="108" x="31" y="107.3638">Send music data</text><polygon fill="#181818" points="275,137.5625,285,141.5625,275,145.5625,279,141.5625" style="stroke:#181818;stroke-width:1.0;"></polygon><line style="stroke:#181818;stroke-width:1.0;" x1="156" x2="281" y1="141.5625" y2="141.5625"></line><text fill="#000000" font-family="sans-serif" font-size="13" lengthAdjust="spacing" textLength="107" x="163" y="136.4966">Save music data</text><polygon fill="#181818" points="359.5,166.6953,369.5,170.6953,359.5,174.6953,363.5,170.6953" style="stroke:#181818;stroke-width:1.0;"></polygon><line style="stroke:#181818;stroke-width:1.0;" x1="156" x2="365.5" y1="170.6953" y2="170.6953"></line><text fill="#000000" font-family="sans-serif" font-size="13" lengthAdjust="spacing" textLength="103" x="163" y="165.6294">Post music data</text><!--SRC=[IqmkoIzI22rEBU8gI2mgoKpEB4ZCAr48JYqg0mgb99Oa9YKMfohuLWO7-YWa5YkuE244NNCIYu4wYbCJYv8pG9AkmLnS8ACKTEsW9YXO0HbvAGgvfSMPoGeWdLnG2Q0I5oUGT69PAdPfrs2WT41-SGcID000]--></g></svg>