<!--?xml version="1.0" encoding="us-ascii" standalone="no"?--><svg xmlns="http://www.w3.org/2000/svg" xmlns:xlink="http://www.w3.org/1999/xlink" contentstyletype="text/css" height="386px" preserveAspectRatio="none" style="width:689px;height:386px;background:#FFFFFF;" version="1.1" viewBox="0 0 689 386" width="689px" zoomAndPan="magnify"><defs></defs><g><line style="stroke:#181818;stroke-width:0.5;stroke-dasharray:5.0,5.0;" x1="24" x2="24" y1="81.2969" y2="305.2266"></line><line style="stroke:#181818;stroke-width:0.5;stroke-dasharray:5.0,5.0;" x1="260" x2="260" y1="81.2969" y2="305.2266"></line><line style="stroke:#181818;stroke-width:0.5;stroke-dasharray:5.0,5.0;" x1="489" x2="489" y1="81.2969" y2="305.2266"></line><line style="stroke:#181818;stroke-width:0.5;stroke-dasharray:5.0,5.0;" x1="573" x2="573" y1="81.2969" y2="305.2266"></line><line style="stroke:#181818;stroke-width:0.5;stroke-dasharray:5.0,5.0;" x1="654" x2="654" y1="81.2969" y2="305.2266"></line><text fill="#000000" font-family="sans-serif" font-size="14" lengthAdjust="spacing" textLength="32" x="5" y="77.9951">User</text><ellipse cx="24" cy="13.5" fill="#E2E2F0" rx="8" ry="8" style="stroke:#181818;stroke-width:0.5;"></ellipse><path d="M24,21.5 L24,48.5 M11,29.5 L37,29.5 M24,48.5 L11,63.5 M24,48.5 L37,63.5 " fill="none" style="stroke:#181818;stroke-width:0.5;"></path><text fill="#000000" font-family="sans-serif" font-size="14" lengthAdjust="spacing" textLength="32" x="5" y="317.2217">User</text><ellipse cx="24" cy="329.0234" fill="#E2E2F0" rx="8" ry="8" style="stroke:#181818;stroke-width:0.5;"></ellipse><path d="M24,337.0234 L24,364.0234 M11,345.0234 L37,345.0234 M24,364.0234 L11,379.0234 M24,364.0234 L37,379.0234 " fill="none" style="stroke:#181818;stroke-width:0.5;"></path><rect fill="#E2E2F0" height="30.2969" rx="2.5" ry="2.5" style="stroke:#181818;stroke-width:0.5;" width="58" x="231" y="50"></rect><text fill="#000000" font-family="sans-serif" font-size="14" lengthAdjust="spacing" textLength="44" x="238" y="69.9951">Server</text><rect fill="#E2E2F0" height="30.2969" rx="2.5" ry="2.5" style="stroke:#181818;stroke-width:0.5;" width="58" x="231" y="304.2266"></rect><text fill="#000000" font-family="sans-serif" font-size="14" lengthAdjust="spacing" textLength="44" x="238" y="324.2217">Server</text><text fill="#000000" font-family="sans-serif" font-size="14" lengthAdjust="spacing" textLength="46" x="463" y="77.9951">MySQL</text><path d="M471,29 C471,19 489,19 489,19 C489,19 507,19 507,29 L507,55 C507,65 489,65 489,65 C489,65 471,65 471,55 L471,29 " fill="#E2E2F0" style="stroke:#181818;stroke-width:1.5;"></path><path d="M471,29 C471,39 489,39 489,39 C489,39 507,39 507,29 " fill="none" style="stroke:#181818;stroke-width:1.5;"></path><text fill="#000000" font-family="sans-serif" font-size="14" lengthAdjust="spacing" textLength="46" x="463" y="317.2217">MySQL</text><path d="M471,330.5234 C471,320.5234 489,320.5234 489,320.5234 C489,320.5234 507,320.5234 507,330.5234 L507,356.5234 C507,366.5234 489,366.5234 489,366.5234 C489,366.5234 471,366.5234 471,356.5234 L471,330.5234 " fill="#E2E2F0" style="stroke:#181818;stroke-width:1.5;"></path><path d="M471,330.5234 C471,340.5234 489,340.5234 489,340.5234 C489,340.5234 507,340.5234 507,330.5234 " fill="none" style="stroke:#181818;stroke-width:1.5;"></path><text fill="#000000" font-family="sans-serif" font-size="14" lengthAdjust="spacing" textLength="91" x="525" y="77.9951">Elasticsearch</text><path d="M555.5,29 C555.5,19 573.5,19 573.5,19 C573.5,19 591.5,19 591.5,29 L591.5,55 C591.5,65 573.5,65 573.5,65 C573.5,65 555.5,65 555.5,55 L555.5,29 " fill="#E2E2F0" style="stroke:#181818;stroke-width:1.5;"></path><path d="M555.5,29 C555.5,39 573.5,39 573.5,39 C573.5,39 591.5,39 591.5,29 " fill="none" style="stroke:#181818;stroke-width:1.5;"></path><text fill="#000000" font-family="sans-serif" font-size="14" lengthAdjust="spacing" textLength="91" x="525" y="317.2217">Elasticsearch</text><path d="M555.5,330.5234 C555.5,320.5234 573.5,320.5234 573.5,320.5234 C573.5,320.5234 591.5,320.5234 591.5,330.5234 L591.5,356.5234 C591.5,366.5234 573.5,366.5234 573.5,366.5234 C573.5,366.5234 555.5,366.5234 555.5,356.5234 L555.5,330.5234 " fill="#E2E2F0" style="stroke:#181818;stroke-width:1.5;"></path><path d="M555.5,330.5234 C555.5,340.5234 573.5,340.5234 573.5,340.5234 C573.5,340.5234 591.5,340.5234 591.5,330.5234 " fill="none" style="stroke:#181818;stroke-width:1.5;"></path><text fill="#000000" font-family="sans-serif" font-size="14" lengthAdjust="spacing" textLength="39" x="632" y="77.9951">Redis</text><path d="M636.5,29 C636.5,19 654.5,19 654.5,19 C654.5,19 672.5,19 672.5,29 L672.5,55 C672.5,65 654.5,65 654.5,65 C654.5,65 636.5,65 636.5,55 L636.5,29 " fill="#E2E2F0" style="stroke:#181818;stroke-width:1.5;"></path><path d="M636.5,29 C636.5,39 654.5,39 654.5,39 C654.5,39 672.5,39 672.5,29 " fill="none" style="stroke:#181818;stroke-width:1.5;"></path><text fill="#000000" font-family="sans-serif" font-size="14" lengthAdjust="spacing" textLength="39" x="632" y="317.2217">Redis</text><path d="M636.5,330.5234 C636.5,320.5234 654.5,320.5234 654.5,320.5234 C654.5,320.5234 672.5,320.5234 672.5,330.5234 L672.5,356.5234 C672.5,366.5234 654.5,366.5234 654.5,366.5234 C654.5,366.5234 636.5,366.5234 636.5,356.5234 L636.5,330.5234 " fill="#E2E2F0" style="stroke:#181818;stroke-width:1.5;"></path><path d="M636.5,330.5234 C636.5,340.5234 654.5,340.5234 654.5,340.5234 C654.5,340.5234 672.5,340.5234 672.5,330.5234 " fill="none" style="stroke:#181818;stroke-width:1.5;"></path><polygon fill="#181818" points="248,108.4297,258,112.4297,248,116.4297,252,112.4297" style="stroke:#181818;stroke-width:1.0;"></polygon><line style="stroke:#181818;stroke-width:1.0;" x1="24" x2="254" y1="112.4297" y2="112.4297"></line><text fill="#000000" font-family="sans-serif" font-size="13" lengthAdjust="spacing" textLength="140" x="31" y="107.3638">Request music details</text><polygon fill="#181818" points="642.5,137.5625,652.5,141.5625,642.5,145.5625,646.5,141.5625" style="stroke:#181818;stroke-width:1.0;"></polygon><line style="stroke:#181818;stroke-width:1.0;" x1="260" x2="648.5" y1="141.5625" y2="141.5625"></line><text fill="#000000" font-family="sans-serif" font-size="13" lengthAdjust="spacing" textLength="186" x="267" y="136.4966">Check if music exists in Redis</text><polygon fill="#181818" points="271,166.6953,261,170.6953,271,174.6953,267,170.6953" style="stroke:#181818;stroke-width:1.0;"></polygon><line style="stroke:#181818;stroke-width:1.0;stroke-dasharray:2.0,2.0;" x1="265" x2="653.5" y1="170.6953" y2="170.6953"></line><text fill="#000000" font-family="sans-serif" font-size="13" lengthAdjust="spacing" textLength="129" x="277" y="165.6294">Music found in Redis</text><polygon fill="#181818" points="35,195.8281,25,199.8281,35,203.8281,31,199.8281" style="stroke:#181818;stroke-width:1.0;"></polygon><line style="stroke:#181818;stroke-width:1.0;stroke-dasharray:2.0,2.0;" x1="29" x2="259" y1="199.8281" y2="199.8281"></line><text fill="#000000" font-family="sans-serif" font-size="13" lengthAdjust="spacing" textLength="202" x="41" y="194.7622">Return music details from Redis</text><polygon fill="#181818" points="477,224.9609,487,228.9609,477,232.9609,481,228.9609" style="stroke:#181818;stroke-width:1.0;"></polygon><line style="stroke:#181818;stroke-width:1.0;" x1="260" x2="483" y1="228.9609" y2="228.9609"></line><text fill="#000000" font-family="sans-serif" font-size="13" lengthAdjust="spacing" textLength="205" x="267" y="223.895">Fetch music details from MySQL</text><polygon fill="#181818" points="642.5,254.0938,652.5,258.0938,642.5,262.0938,646.5,258.0938" style="stroke:#181818;stroke-width:1.0;"></polygon><line style="stroke:#181818;stroke-width:1.0;" x1="260" x2="648.5" y1="258.0938" y2="258.0938"></line><text fill="#000000" font-family="sans-serif" font-size="13" lengthAdjust="spacing" textLength="173" x="267" y="253.0278">Save music details in Redis</text><polygon fill="#181818" points="35,283.2266,25,287.2266,35,291.2266,31,287.2266" style="stroke:#181818;stroke-width:1.0;"></polygon><line style="stroke:#181818;stroke-width:1.0;stroke-dasharray:2.0,2.0;" x1="29" x2="259" y1="287.2266" y2="287.2266"></line><text fill="#000000" font-family="sans-serif" font-size="13" lengthAdjust="spacing" textLength="212" x="41" y="282.1606">Return music details from MySQL</text><!--SRC=[dP0z4e9038NxFKKku0KiA4Iif1360yGb33lovoRBwEqDY8CoLhRlVNbv2LhfF9oPlEdHYxEknrOW9p-eLA3W1PaWVUId8o33VhU8IOsi4qpeRJMQIRwO6HMEHp6BZHdpOHFDiR1LznQ81Ph0pa91WgvcCziAPh52SKNs2gwSARex5WRNlhADCflFp7IYoYwqnGAz8nMSIeoh9VZsUpEKlcjM4v7UglY1H8_xGKylMLVESQ0L_5ULAVm9]--></g></svg>